<svg width="64" height="64" viewBox="0 0 64 64" fill="none" xmlns="http://www.w3.org/2000/svg">
  <rect width="64" height="64" rx="4" fill="#1A1A1A"/>
  <rect x="2" y="2" width="60" height="60" rx="2" stroke="#ED1C24" stroke-width="1.5"/>
  <path d="M18.324 29.137l1.559 1.56h2.556v2.557L24 34.814V29.137zM2 29.52l-2 4.96h1.309l.37-.982H3.9l.408.982h1.338L3.432 29.52zm4.209 0v4.955h1.238v-3.092l1.338 1.562h.188l1.338-1.556v3.091h1.238V29.52H10.47l-1.592 1.845L7.287 29.52zm6.283 0v4.96h2.057c1.979 0 2.88-1.046 2.88-2.472 0-1.36-.937-2.488-2.747-2.488zm1.237.91h.792c1.17 0 1.63.711 1.63 1.57 0 .728-.372 1.572-1.616 1.572h-.806zm-10.985.273l.791 1.932H2.008zm17.137.307l-1.604 1.603v2.25h2.246l1.604-1.607h-2.246z" fill="white" transform="translate(15, 0) scale(1.2)"/>
  <rect x="8" y="44" width="48" height="12" rx="1" fill="#ED1C24"/>
  <text x="32" y="53" font-family="Arial" font-size="8" font-weight="900" fill="white" text-anchor="middle">EPYC</text>
</svg>
